<?xml version="1.0" encoding="UTF-8" standalone="no"?>
<svg
   xmlns:dc="http://purl.org/dc/elements/1.1/"
   xmlns:cc="http://creativecommons.org/ns#"
   xmlns:rdf="http://www.w3.org/1999/02/22-rdf-syntax-ns#"
   xmlns:svg="http://www.w3.org/2000/svg"
   xmlns="http://www.w3.org/2000/svg"
   xmlns:sodipodi="http://sodipodi.sourceforge.net/DTD/sodipodi-0.dtd"
   xmlns:inkscape="http://www.inkscape.org/namespaces/inkscape"
   width="737.43719"
   height="46.07756"
   viewBox="0 0 737.43719 46.07756"
   version="1.1"
   id="svg4501"
   sodipodi:docname="less-code-is-more.svg"
   style="fill:none"
   inkscape:version="0.92.1 r15371">
  <metadata
     id="metadata4505">
    <rdf:RDF>
      <cc:Work
         rdf:about="">
        <dc:format>image/svg+xml</dc:format>
        <dc:type
           rdf:resource="http://purl.org/dc/dcmitype/StillImage" />
        <dc:title></dc:title>
      </cc:Work>
    </rdf:RDF>
  </metadata>
  <sodipodi:namedview
     pagecolor="#ffffff"
     bordercolor="#666666"
     borderopacity="1"
     objecttolerance="10"
     gridtolerance="10"
     guidetolerance="10"
     inkscape:pageopacity="0"
     inkscape:pageshadow="2"
     inkscape:window-width="2560"
     inkscape:window-height="1346"
     id="namedview4503"
     showgrid="false"
     inkscape:zoom="2.5805195"
     inkscape:cx="368.2812"
     inkscape:cy="27.125"
     inkscape:window-x="-11"
     inkscape:window-y="-11"
     inkscape:window-maximized="1"
     inkscape:current-layer="svg4501" />
  <mask
     id="mask0"
     mask-type="alpha"
     maskUnits="userSpaceOnUse"
     x="0"
     y="0"
     width="770"
     height="79">
    <path
       d="M 0,0 H 770 V 46 H 0 Z m 0,48 v 3 h 770 v -3 z m 0,5 h 770 v 3 H 0 Z m 0,5 v 3 h 770 v -3 z m 0,5 H 770 V 79 H 0 Z"
       id="path4485"
       inkscape:connector-curvature="0"
       style="clip-rule:evenodd;fill:#ffffff;fill-rule:evenodd" />
  </mask>
  <g
     mask="url(#mask0)"
     id="g4492"
     style="display:inline"
     transform="translate(-16.7188,-20.547438)">
    <path
       d="M 57.875,66 H 20.8125 c -0.5833,0 -1.125,-0.1042 -1.625,-0.3125 -0.5,-0.2083 -0.9375,-0.4896 -1.3125,-0.8437 -0.3542,-0.375 -0.6354,-0.8126 -0.8438,-1.3126 -0.2083,-0.5 -0.3124,-1.0416 -0.3124,-1.625 V 21.1875 h 8.125 V 57.875 H 57.875 Z M 100.5,47.6875 H 74.8438 V 39.5 H 100.5 Z M 104.156,66 H 74.8438 c -1.125,0 -2.3542,-0.1979 -3.6876,-0.5938 -1.3333,-0.3958 -2.5729,-1.0416 -3.7187,-1.9374 -1.125,-0.9167 -2.0729,-2.0938 -2.8437,-3.5313 -0.75,-1.4583 -1.125,-3.2396 -1.125,-5.3437 V 25.2812 c 0,-0.5624 0.1041,-1.0937 0.3124,-1.5937 0.2084,-0.5 0.4896,-0.9375 0.8438,-1.3125 C 65,22 65.4375,21.7083 65.9375,21.5 c 0.5,-0.2083 1.0417,-0.3125 1.625,-0.3125 h 36.5935 v 8.125 H 71.5938 v 25.2813 c 0,1.0624 0.2812,1.875 0.8437,2.4374 0.5625,0.5626 1.3854,0.8438 2.4687,0.8438 h 29.2498 z m 50.75,-13.1875 c 0,1.6042 -0.208,3.0521 -0.625,4.3437 -0.396,1.2709 -0.927,2.3959 -1.593,3.375 -0.667,0.9792 -1.448,1.8126 -2.344,2.5 -0.896,0.6876 -1.823,1.25 -2.782,1.6876 -0.958,0.4374 -1.937,0.7604 -2.937,0.9687 C 143.646,65.8958 142.719,66 141.844,66 H 110.5 v -8.125 h 31.344 c 1.562,0 2.771,-0.4583 3.625,-1.375 0.875,-0.9167 1.312,-2.1458 1.312,-3.6875 0,-0.75 -0.114,-1.4375 -0.343,-2.0625 -0.23,-0.625 -0.563,-1.1667 -1,-1.625 -0.417,-0.4583 -0.938,-0.8125 -1.563,-1.0625 -0.604,-0.25 -1.281,-0.375 -2.031,-0.375 h -18.688 c -1.312,0 -2.729,-0.2292 -4.25,-0.6875 -1.521,-0.4792 -2.937,-1.2396 -4.25,-2.2812 -1.291,-1.0417 -2.375,-2.4063 -3.25,-4.0938 -0.854,-1.6875 -1.281,-3.75 -1.281,-6.1875 0,-2.4375 0.427,-4.4896 1.281,-6.1563 0.875,-1.6874 1.959,-3.052 3.25,-4.0937 1.313,-1.0625 2.729,-1.8229 4.25,-2.2813 1.521,-0.4791 2.938,-0.7187 4.25,-0.7187 h 27.656 v 8.125 h -27.656 c -1.541,0 -2.75,0.4687 -3.625,1.4063 -0.854,0.9374 -1.281,2.177 -1.281,3.7187 0,1.5625 0.427,2.8021 1.281,3.7187 0.875,0.8959 2.084,1.3438 3.625,1.3438 h 18.688 0.062 c 0.875,0.0208 1.802,0.1458 2.782,0.375 0.979,0.2083 1.947,0.5417 2.906,1 0.979,0.4583 1.906,1.0417 2.781,1.75 0.875,0.6875 1.646,1.5208 2.313,2.5 0.687,0.9792 1.229,2.1042 1.624,3.375 0.396,1.2708 0.594,2.7083 0.594,4.3125 z m 49.813,0 c 0,1.6042 -0.209,3.0521 -0.625,4.3437 -0.396,1.2709 -0.927,2.3959 -1.594,3.375 -0.667,0.9792 -1.448,1.8126 -2.344,2.5 -0.896,0.6876 -1.823,1.25 -2.781,1.6876 -0.958,0.4374 -1.937,0.7604 -2.937,0.9687 C 193.458,65.8958 192.531,66 191.656,66 h -31.344 v -8.125 h 31.344 c 1.563,0 2.771,-0.4583 3.625,-1.375 0.875,-0.9167 1.313,-2.1458 1.313,-3.6875 0,-0.75 -0.115,-1.4375 -0.344,-2.0625 -0.229,-0.625 -0.562,-1.1667 -1,-1.625 -0.417,-0.4583 -0.938,-0.8125 -1.562,-1.0625 -0.605,-0.25 -1.282,-0.375 -2.032,-0.375 h -18.687 c -1.313,0 -2.729,-0.2292 -4.25,-0.6875 -1.521,-0.4792 -2.938,-1.2396 -4.25,-2.2812 -1.292,-1.0417 -2.375,-2.4063 -3.25,-4.0938 -0.854,-1.6875 -1.281,-3.75 -1.281,-6.1875 0,-2.4375 0.427,-4.4896 1.281,-6.1563 0.875,-1.6874 1.958,-3.052 3.25,-4.0937 1.312,-1.0625 2.729,-1.8229 4.25,-2.2813 1.521,-0.4791 2.937,-0.7187 4.25,-0.7187 h 27.656 v 8.125 h -27.656 c -1.542,0 -2.75,0.4687 -3.625,1.4063 -0.854,0.9374 -1.282,2.177 -1.282,3.7187 0,1.5625 0.428,2.8021 1.282,3.7187 0.875,0.8959 2.083,1.3438 3.625,1.3438 h 18.687 0.063 c 0.875,0.0208 1.802,0.1458 2.781,0.375 0.979,0.2083 1.948,0.5417 2.906,1 0.979,0.4583 1.906,1.0417 2.782,1.75 0.874,0.6875 1.645,1.5208 2.312,2.5 0.688,0.9792 1.229,2.1042 1.625,3.375 0.396,1.2708 0.594,2.7083 0.594,4.3125 z M 272.094,66 h -29.313 c -0.75,0 -1.562,-0.0833 -2.437,-0.25 -0.854,-0.1875 -1.709,-0.4688 -2.563,-0.8438 -0.833,-0.375 -1.635,-0.8541 -2.406,-1.4374 -0.771,-0.6042 -1.458,-1.323 -2.063,-2.1563 -0.583,-0.8542 -1.052,-1.8333 -1.406,-2.9375 -0.354,-1.125 -0.531,-2.3854 -0.531,-3.7812 v -22 c 0,-0.75 0.083,-1.5521 0.25,-2.4063 0.187,-0.875 0.469,-1.7292 0.844,-2.5625 0.375,-0.8542 0.864,-1.6667 1.469,-2.4375 0.604,-0.7708 1.322,-1.4479 2.156,-2.0313 0.854,-0.6041 1.833,-1.0833 2.937,-1.4374 1.104,-0.3542 2.354,-0.5313 3.75,-0.5313 h 29.313 v 8.125 h -29.313 c -1.062,0 -1.875,0.2813 -2.437,0.8437 -0.563,0.5626 -0.844,1.3959 -0.844,2.5 v 21.9376 c 0,1.0416 0.281,1.8541 0.844,2.4374 0.583,0.5626 1.396,0.8438 2.437,0.8438 h 29.313 z m 54.031,-18.125 c 0,2.7292 -0.469,5.2396 -1.406,7.5312 -0.938,2.2917 -2.24,4.2709 -3.907,5.9376 -1.666,1.6666 -3.645,2.9687 -5.937,3.9062 -2.271,0.9167 -4.75,1.375 -7.437,1.375 h -11 c -2.688,0 -5.178,-0.4583 -7.469,-1.375 -2.292,-0.9375 -4.271,-2.2396 -5.938,-3.9062 -1.666,-1.6667 -2.979,-3.6459 -3.937,-5.9376 -0.938,-2.2916 -1.406,-4.802 -1.406,-7.5312 v -8.5625 c 0,-2.7083 0.468,-5.2083 1.406,-7.5 0.958,-2.3125 2.271,-4.2917 3.937,-5.9375 1.667,-1.6667 3.646,-2.9688 5.938,-3.9062 2.291,-0.9376 4.781,-1.4063 7.469,-1.4063 h 11 c 2.687,0 5.166,0.4687 7.437,1.4063 2.292,0.9374 4.271,2.2395 5.937,3.9062 1.667,1.6458 2.969,3.625 3.907,5.9375 0.937,2.2917 1.406,4.7917 1.406,7.5 z M 318,39.3125 c 0,-1.6042 -0.26,-3.0521 -0.781,-4.3437 -0.5,-1.3126 -1.219,-2.4271 -2.157,-3.3438 -0.916,-0.9375 -2.031,-1.6562 -3.343,-2.1562 -1.292,-0.5209 -2.719,-0.7813 -4.281,-0.7813 h -11 c -1.584,0 -3.032,0.2604 -4.344,0.7813 -1.292,0.5 -2.406,1.2187 -3.344,2.1562 -0.938,0.9167 -1.667,2.0312 -2.188,3.3438 -0.5,1.2916 -0.75,2.7395 -0.75,4.3437 v 8.5625 c 0,1.6042 0.25,3.0625 0.75,4.375 0.521,1.2917 1.25,2.4062 2.188,3.3438 0.938,0.9166 2.052,1.6354 3.344,2.1562 1.312,0.5 2.76,0.75 4.344,0.75 h 10.937 c 1.583,0 3.021,-0.25 4.313,-0.75 1.312,-0.5208 2.437,-1.2396 3.374,-2.1562 C 316,54.6562 316.719,53.5417 317.219,52.25 317.74,50.9375 318,49.4792 318,47.875 Z m 60.875,7.9375 c 0,2.7292 -0.479,5.2396 -1.437,7.5312 -0.938,2.2917 -2.24,4.2709 -3.907,5.9376 -1.666,1.6458 -3.646,2.9374 -5.937,3.875 C 365.302,65.5312 362.812,66 360.125,66 h -21.937 c -0.584,0 -1.126,-0.1042 -1.626,-0.3125 -0.5,-0.2083 -0.937,-0.4896 -1.312,-0.8437 -0.354,-0.375 -0.635,-0.8126 -0.844,-1.3126 -0.208,-0.5 -0.312,-1.0416 -0.312,-1.625 v -36.625 c 0,-0.5624 0.104,-1.0937 0.312,-1.5937 0.209,-0.5 0.49,-0.9375 0.844,-1.3125 0.375,-0.375 0.812,-0.6667 1.312,-0.875 0.5,-0.2083 1.042,-0.3125 1.626,-0.3125 h 21.937 c 2.687,0 5.177,0.4687 7.469,1.4063 2.291,0.9374 4.271,2.2395 5.937,3.9062 1.667,1.6458 2.969,3.625 3.907,5.9375 0.958,2.2917 1.437,4.7917 1.437,7.5 z m -8.125,-7.3125 c 0,-1.5833 -0.26,-3.0313 -0.781,-4.3437 -0.5,-1.3126 -1.219,-2.4271 -2.157,-3.3438 -0.937,-0.9375 -2.062,-1.6562 -3.374,-2.1562 -1.292,-0.5209 -2.73,-0.7813 -4.313,-0.7813 H 342.219 V 57.875 h 17.906 c 1.583,0 3.021,-0.25 4.313,-0.75 1.312,-0.5208 2.437,-1.2396 3.374,-2.1562 0.938,-0.9376 1.657,-2.0521 2.157,-3.3438 0.521,-1.3125 0.781,-2.7708 0.781,-4.375 z m 52.938,7.75 H 398.031 V 39.5 h 25.657 z M 427.344,66 h -29.313 c -1.125,0 -2.354,-0.1979 -3.687,-0.5938 -1.334,-0.3958 -2.573,-1.0416 -3.719,-1.9374 -1.125,-0.9167 -2.073,-2.0938 -2.844,-3.5313 -0.75,-1.4583 -1.125,-3.2396 -1.125,-5.3437 V 25.2812 c 0,-0.5624 0.104,-1.0937 0.313,-1.5937 0.208,-0.5 0.489,-0.9375 0.843,-1.3125 0.376,-0.375 0.813,-0.6667 1.313,-0.875 0.5,-0.2083 1.042,-0.3125 1.625,-0.3125 h 36.594 v 8.125 h -32.563 v 25.2813 c 0,1.0624 0.281,1.875 0.844,2.4374 0.563,0.5626 1.385,0.8438 2.469,0.8438 h 29.25 z m 36.875,0 h -8.125 V 21.1875 h 8.125 z m 52.562,-13.1875 c 0,1.6042 -0.208,3.0521 -0.625,4.3437 -0.396,1.2709 -0.927,2.3959 -1.594,3.375 -0.666,0.9792 -1.447,1.8126 -2.343,2.5 -0.896,0.6876 -1.823,1.25 -2.781,1.6876 -0.959,0.4374 -1.938,0.7604 -2.938,0.9687 C 505.521,65.8958 504.594,66 503.719,66 h -31.344 v -8.125 h 31.344 c 1.562,0 2.771,-0.4583 3.625,-1.375 0.875,-0.9167 1.312,-2.1458 1.312,-3.6875 0,-0.75 -0.114,-1.4375 -0.344,-2.0625 -0.229,-0.625 -0.562,-1.1667 -1,-1.625 -0.416,-0.4583 -0.937,-0.8125 -1.562,-1.0625 -0.604,-0.25 -1.281,-0.375 -2.031,-0.375 h -18.688 c -1.312,0 -2.729,-0.2292 -4.25,-0.6875 -1.521,-0.4792 -2.937,-1.2396 -4.25,-2.2812 -1.291,-1.0417 -2.375,-2.4063 -3.25,-4.0938 -0.854,-1.6875 -1.281,-3.75 -1.281,-6.1875 0,-2.4375 0.427,-4.4896 1.281,-6.1563 0.875,-1.6874 1.959,-3.052 3.25,-4.0937 1.313,-1.0625 2.729,-1.8229 4.25,-2.2813 1.521,-0.4791 2.938,-0.7187 4.25,-0.7187 h 27.657 v 8.125 h -27.657 c -1.541,0 -2.75,0.4687 -3.625,1.4063 -0.854,0.9374 -1.281,2.177 -1.281,3.7187 0,1.5625 0.427,2.8021 1.281,3.7187 0.875,0.8959 2.084,1.3438 3.625,1.3438 h 18.688 0.062 c 0.875,0.0208 1.802,0.1458 2.781,0.375 0.98,0.2083 1.948,0.5417 2.907,1 0.979,0.4583 1.906,1.0417 2.781,1.75 0.875,0.6875 1.646,1.5208 2.312,2.5 0.688,0.9792 1.23,2.1042 1.626,3.375 0.395,1.2708 0.593,2.7083 0.593,4.3125 z M 596.188,66 H 588 V 39.3125 l -14.406,25.3437 c -0.354,0.6459 -0.854,1.1355 -1.5,1.4688 -0.625,0.3333 -1.302,0.5 -2.032,0.5 -0.708,0 -1.374,-0.1667 -2,-0.5 -0.604,-0.3333 -1.083,-0.8229 -1.437,-1.4688 L 552.156,39.3125 V 66 h -8.125 V 24.6562 c 0,-0.9374 0.271,-1.7708 0.813,-2.5 0.562,-0.7291 1.291,-1.2187 2.187,-1.4687 0.438,-0.1042 0.875,-0.1354 1.313,-0.0937 0.437,0.0208 0.854,0.1145 1.25,0.2812 0.416,0.1458 0.791,0.3646 1.125,0.6562 0.333,0.2709 0.614,0.6042 0.843,1 l 18.5,32.1563 18.5,-32.1563 c 0.48,-0.7916 1.136,-1.3541 1.969,-1.6874 0.854,-0.3334 1.74,-0.3855 2.657,-0.1563 0.874,0.25 1.593,0.7396 2.156,1.4687 0.562,0.7292 0.844,1.5626 0.844,2.5 z m 56.5,-18.125 c 0,2.7292 -0.469,5.2396 -1.407,7.5312 -0.937,2.2917 -2.239,4.2709 -3.906,5.9376 -1.667,1.6666 -3.646,2.9687 -5.937,3.9062 -2.271,0.9167 -4.75,1.375 -7.438,1.375 h -11 c -2.688,0 -5.177,-0.4583 -7.469,-1.375 -2.291,-0.9375 -4.271,-2.2396 -5.937,-3.9062 -1.667,-1.6667 -2.979,-3.6459 -3.938,-5.9376 -0.937,-2.2916 -1.406,-4.802 -1.406,-7.5312 v -8.5625 c 0,-2.7083 0.469,-5.2083 1.406,-7.5 0.959,-2.3125 2.271,-4.2917 3.938,-5.9375 1.666,-1.6667 3.646,-2.9688 5.937,-3.9062 2.292,-0.9376 4.781,-1.4063 7.469,-1.4063 h 11 c 2.688,0 5.167,0.4687 7.438,1.4063 2.291,0.9374 4.27,2.2395 5.937,3.9062 1.667,1.6458 2.969,3.625 3.906,5.9375 0.938,2.2917 1.407,4.7917 1.407,7.5 z m -8.126,-8.5625 c 0,-1.6042 -0.26,-3.0521 -0.781,-4.3437 -0.5,-1.3126 -1.219,-2.4271 -2.156,-3.3438 -0.917,-0.9375 -2.031,-1.6562 -3.344,-2.1562 -1.291,-0.5209 -2.719,-0.7813 -4.281,-0.7813 h -11 c -1.583,0 -3.031,0.2604 -4.344,0.7813 -1.291,0.5 -2.406,1.2187 -3.344,2.1562 -0.937,0.9167 -1.666,2.0312 -2.187,3.3438 -0.5,1.2916 -0.75,2.7395 -0.75,4.3437 v 8.5625 c 0,1.6042 0.25,3.0625 0.75,4.375 0.521,1.2917 1.25,2.4062 2.187,3.3438 0.938,0.9166 2.053,1.6354 3.344,2.1562 1.313,0.5 2.761,0.75 4.344,0.75 h 10.938 c 1.583,0 3.02,-0.25 4.312,-0.75 1.312,-0.5208 2.438,-1.2396 3.375,-2.1562 0.937,-0.9376 1.656,-2.0521 2.156,-3.3438 0.521,-1.3125 0.781,-2.7708 0.781,-4.375 z M 705.5,36.25 c 0,1.8542 -0.229,3.5104 -0.688,4.9688 -0.458,1.4583 -1.083,2.75 -1.874,3.875 -0.771,1.1041 -1.667,2.052 -2.688,2.8437 -1.021,0.7917 -2.094,1.4479 -3.219,1.9687 -1.104,0.5 -2.229,0.8646 -3.375,1.0938 -1.125,0.2292 -2.187,0.3438 -3.187,0.3438 L 707.438,66 H 694.875 L 677.938,51.3438 h -5.844 v -8.125 h 18.375 c 1.021,-0.0834 1.948,-0.2917 2.781,-0.625 0.854,-0.3542 1.583,-0.823 2.188,-1.4063 0.624,-0.5833 1.104,-1.2813 1.437,-2.0937 0.333,-0.8334 0.5,-1.7813 0.5,-2.8438 v -5.125 c 0,-0.4583 -0.063,-0.8021 -0.187,-1.0312 -0.105,-0.25 -0.25,-0.4271 -0.438,-0.5313 -0.167,-0.125 -0.354,-0.1979 -0.562,-0.2187 -0.188,-0.0209 -0.365,-0.0313 -0.532,-0.0313 H 668.844 V 66 h -8.125 V 25.2812 c 0,-0.5624 0.104,-1.0937 0.312,-1.5937 0.209,-0.5 0.49,-0.9375 0.844,-1.3125 0.375,-0.375 0.813,-0.6667 1.313,-0.875 0.5,-0.2083 1.041,-0.3125 1.624,-0.3125 h 30.844 c 1.813,0 3.344,0.3333 4.594,1 1.25,0.6458 2.26,1.4687 3.031,2.4687 0.792,0.9792 1.354,2.0417 1.688,3.1876 0.354,1.1458 0.531,2.2187 0.531,3.2187 z m 45,11.4375 H 724.844 V 39.5 H 750.5 Z M 754.156,66 h -29.312 c -1.125,0 -2.354,-0.1979 -3.688,-0.5938 -1.333,-0.3958 -2.573,-1.0416 -3.718,-1.9374 -1.126,-0.9167 -2.073,-2.0938 -2.844,-3.5313 -0.75,-1.4583 -1.125,-3.2396 -1.125,-5.3437 V 25.2812 c 0,-0.5624 0.104,-1.0937 0.312,-1.5937 0.209,-0.5 0.49,-0.9375 0.844,-1.3125 0.375,-0.375 0.813,-0.6667 1.313,-0.875 0.5,-0.2083 1.041,-0.3125 1.624,-0.3125 h 36.594 v 8.125 h -32.562 v 25.2813 c 0,1.0624 0.281,1.875 0.844,2.4374 0.562,0.5626 1.385,0.8438 2.468,0.8438 h 29.25 z"
       id="path4488"
       inkscape:connector-curvature="0"
       style="fill:#fe00fb" />
    <path
       d="M 57.875,66 H 20.8125 c -0.5833,0 -1.125,-0.1042 -1.625,-0.3125 -0.5,-0.2083 -0.9375,-0.4896 -1.3125,-0.8437 -0.3542,-0.375 -0.6354,-0.8126 -0.8438,-1.3126 -0.2083,-0.5 -0.3124,-1.0416 -0.3124,-1.625 V 21.1875 h 8.125 V 57.875 H 57.875 Z M 100.5,47.6875 H 74.8438 V 39.5 H 100.5 Z M 104.156,66 H 74.8438 c -1.125,0 -2.3542,-0.1979 -3.6876,-0.5938 -1.3333,-0.3958 -2.5729,-1.0416 -3.7187,-1.9374 -1.125,-0.9167 -2.0729,-2.0938 -2.8437,-3.5313 -0.75,-1.4583 -1.125,-3.2396 -1.125,-5.3437 V 25.2812 c 0,-0.5624 0.1041,-1.0937 0.3124,-1.5937 0.2084,-0.5 0.4896,-0.9375 0.8438,-1.3125 C 65,22 65.4375,21.7083 65.9375,21.5 c 0.5,-0.2083 1.0417,-0.3125 1.625,-0.3125 h 36.5935 v 8.125 H 71.5938 v 25.2813 c 0,1.0624 0.2812,1.875 0.8437,2.4374 0.5625,0.5626 1.3854,0.8438 2.4687,0.8438 h 29.2498 z m 50.75,-13.1875 c 0,1.6042 -0.208,3.0521 -0.625,4.3437 -0.396,1.2709 -0.927,2.3959 -1.593,3.375 -0.667,0.9792 -1.448,1.8126 -2.344,2.5 -0.896,0.6876 -1.823,1.25 -2.782,1.6876 -0.958,0.4374 -1.937,0.7604 -2.937,0.9687 C 143.646,65.8958 142.719,66 141.844,66 H 110.5 v -8.125 h 31.344 c 1.562,0 2.771,-0.4583 3.625,-1.375 0.875,-0.9167 1.312,-2.1458 1.312,-3.6875 0,-0.75 -0.114,-1.4375 -0.343,-2.0625 -0.23,-0.625 -0.563,-1.1667 -1,-1.625 -0.417,-0.4583 -0.938,-0.8125 -1.563,-1.0625 -0.604,-0.25 -1.281,-0.375 -2.031,-0.375 h -18.688 c -1.312,0 -2.729,-0.2292 -4.25,-0.6875 -1.521,-0.4792 -2.937,-1.2396 -4.25,-2.2812 -1.291,-1.0417 -2.375,-2.4063 -3.25,-4.0938 -0.854,-1.6875 -1.281,-3.75 -1.281,-6.1875 0,-2.4375 0.427,-4.4896 1.281,-6.1563 0.875,-1.6874 1.959,-3.052 3.25,-4.0937 1.313,-1.0625 2.729,-1.8229 4.25,-2.2813 1.521,-0.4791 2.938,-0.7187 4.25,-0.7187 h 27.656 v 8.125 h -27.656 c -1.541,0 -2.75,0.4687 -3.625,1.4063 -0.854,0.9374 -1.281,2.177 -1.281,3.7187 0,1.5625 0.427,2.8021 1.281,3.7187 0.875,0.8959 2.084,1.3438 3.625,1.3438 h 18.688 0.062 c 0.875,0.0208 1.802,0.1458 2.782,0.375 0.979,0.2083 1.947,0.5417 2.906,1 0.979,0.4583 1.906,1.0417 2.781,1.75 0.875,0.6875 1.646,1.5208 2.313,2.5 0.687,0.9792 1.229,2.1042 1.624,3.375 0.396,1.2708 0.594,2.7083 0.594,4.3125 z m 49.813,0 c 0,1.6042 -0.209,3.0521 -0.625,4.3437 -0.396,1.2709 -0.927,2.3959 -1.594,3.375 -0.667,0.9792 -1.448,1.8126 -2.344,2.5 -0.896,0.6876 -1.823,1.25 -2.781,1.6876 -0.958,0.4374 -1.937,0.7604 -2.937,0.9687 C 193.458,65.8958 192.531,66 191.656,66 h -31.344 v -8.125 h 31.344 c 1.563,0 2.771,-0.4583 3.625,-1.375 0.875,-0.9167 1.313,-2.1458 1.313,-3.6875 0,-0.75 -0.115,-1.4375 -0.344,-2.0625 -0.229,-0.625 -0.562,-1.1667 -1,-1.625 -0.417,-0.4583 -0.938,-0.8125 -1.562,-1.0625 -0.605,-0.25 -1.282,-0.375 -2.032,-0.375 h -18.687 c -1.313,0 -2.729,-0.2292 -4.25,-0.6875 -1.521,-0.4792 -2.938,-1.2396 -4.25,-2.2812 -1.292,-1.0417 -2.375,-2.4063 -3.25,-4.0938 -0.854,-1.6875 -1.281,-3.75 -1.281,-6.1875 0,-2.4375 0.427,-4.4896 1.281,-6.1563 0.875,-1.6874 1.958,-3.052 3.25,-4.0937 1.312,-1.0625 2.729,-1.8229 4.25,-2.2813 1.521,-0.4791 2.937,-0.7187 4.25,-0.7187 h 27.656 v 8.125 h -27.656 c -1.542,0 -2.75,0.4687 -3.625,1.4063 -0.854,0.9374 -1.282,2.177 -1.282,3.7187 0,1.5625 0.428,2.8021 1.282,3.7187 0.875,0.8959 2.083,1.3438 3.625,1.3438 h 18.687 0.063 c 0.875,0.0208 1.802,0.1458 2.781,0.375 0.979,0.2083 1.948,0.5417 2.906,1 0.979,0.4583 1.906,1.0417 2.782,1.75 0.874,0.6875 1.645,1.5208 2.312,2.5 0.688,0.9792 1.229,2.1042 1.625,3.375 0.396,1.2708 0.594,2.7083 0.594,4.3125 z M 272.094,66 h -29.313 c -0.75,0 -1.562,-0.0833 -2.437,-0.25 -0.854,-0.1875 -1.709,-0.4688 -2.563,-0.8438 -0.833,-0.375 -1.635,-0.8541 -2.406,-1.4374 -0.771,-0.6042 -1.458,-1.323 -2.063,-2.1563 -0.583,-0.8542 -1.052,-1.8333 -1.406,-2.9375 -0.354,-1.125 -0.531,-2.3854 -0.531,-3.7812 v -22 c 0,-0.75 0.083,-1.5521 0.25,-2.4063 0.187,-0.875 0.469,-1.7292 0.844,-2.5625 0.375,-0.8542 0.864,-1.6667 1.469,-2.4375 0.604,-0.7708 1.322,-1.4479 2.156,-2.0313 0.854,-0.6041 1.833,-1.0833 2.937,-1.4374 1.104,-0.3542 2.354,-0.5313 3.75,-0.5313 h 29.313 v 8.125 h -29.313 c -1.062,0 -1.875,0.2813 -2.437,0.8437 -0.563,0.5626 -0.844,1.3959 -0.844,2.5 v 21.9376 c 0,1.0416 0.281,1.8541 0.844,2.4374 0.583,0.5626 1.396,0.8438 2.437,0.8438 h 29.313 z m 54.031,-18.125 c 0,2.7292 -0.469,5.2396 -1.406,7.5312 -0.938,2.2917 -2.24,4.2709 -3.907,5.9376 -1.666,1.6666 -3.645,2.9687 -5.937,3.9062 -2.271,0.9167 -4.75,1.375 -7.437,1.375 h -11 c -2.688,0 -5.178,-0.4583 -7.469,-1.375 -2.292,-0.9375 -4.271,-2.2396 -5.938,-3.9062 -1.666,-1.6667 -2.979,-3.6459 -3.937,-5.9376 -0.938,-2.2916 -1.406,-4.802 -1.406,-7.5312 v -8.5625 c 0,-2.7083 0.468,-5.2083 1.406,-7.5 0.958,-2.3125 2.271,-4.2917 3.937,-5.9375 1.667,-1.6667 3.646,-2.9688 5.938,-3.9062 2.291,-0.9376 4.781,-1.4063 7.469,-1.4063 h 11 c 2.687,0 5.166,0.4687 7.437,1.4063 2.292,0.9374 4.271,2.2395 5.937,3.9062 1.667,1.6458 2.969,3.625 3.907,5.9375 0.937,2.2917 1.406,4.7917 1.406,7.5 z M 318,39.3125 c 0,-1.6042 -0.26,-3.0521 -0.781,-4.3437 -0.5,-1.3126 -1.219,-2.4271 -2.157,-3.3438 -0.916,-0.9375 -2.031,-1.6562 -3.343,-2.1562 -1.292,-0.5209 -2.719,-0.7813 -4.281,-0.7813 h -11 c -1.584,0 -3.032,0.2604 -4.344,0.7813 -1.292,0.5 -2.406,1.2187 -3.344,2.1562 -0.938,0.9167 -1.667,2.0312 -2.188,3.3438 -0.5,1.2916 -0.75,2.7395 -0.75,4.3437 v 8.5625 c 0,1.6042 0.25,3.0625 0.75,4.375 0.521,1.2917 1.25,2.4062 2.188,3.3438 0.938,0.9166 2.052,1.6354 3.344,2.1562 1.312,0.5 2.76,0.75 4.344,0.75 h 10.937 c 1.583,0 3.021,-0.25 4.313,-0.75 1.312,-0.5208 2.437,-1.2396 3.374,-2.1562 C 316,54.6562 316.719,53.5417 317.219,52.25 317.74,50.9375 318,49.4792 318,47.875 Z m 60.875,7.9375 c 0,2.7292 -0.479,5.2396 -1.437,7.5312 -0.938,2.2917 -2.24,4.2709 -3.907,5.9376 -1.666,1.6458 -3.646,2.9374 -5.937,3.875 C 365.302,65.5312 362.812,66 360.125,66 h -21.937 c -0.584,0 -1.126,-0.1042 -1.626,-0.3125 -0.5,-0.2083 -0.937,-0.4896 -1.312,-0.8437 -0.354,-0.375 -0.635,-0.8126 -0.844,-1.3126 -0.208,-0.5 -0.312,-1.0416 -0.312,-1.625 v -36.625 c 0,-0.5624 0.104,-1.0937 0.312,-1.5937 0.209,-0.5 0.49,-0.9375 0.844,-1.3125 0.375,-0.375 0.812,-0.6667 1.312,-0.875 0.5,-0.2083 1.042,-0.3125 1.626,-0.3125 h 21.937 c 2.687,0 5.177,0.4687 7.469,1.4063 2.291,0.9374 4.271,2.2395 5.937,3.9062 1.667,1.6458 2.969,3.625 3.907,5.9375 0.958,2.2917 1.437,4.7917 1.437,7.5 z m -8.125,-7.3125 c 0,-1.5833 -0.26,-3.0313 -0.781,-4.3437 -0.5,-1.3126 -1.219,-2.4271 -2.157,-3.3438 -0.937,-0.9375 -2.062,-1.6562 -3.374,-2.1562 -1.292,-0.5209 -2.73,-0.7813 -4.313,-0.7813 H 342.219 V 57.875 h 17.906 c 1.583,0 3.021,-0.25 4.313,-0.75 1.312,-0.5208 2.437,-1.2396 3.374,-2.1562 0.938,-0.9376 1.657,-2.0521 2.157,-3.3438 0.521,-1.3125 0.781,-2.7708 0.781,-4.375 z m 52.938,7.75 H 398.031 V 39.5 h 25.657 z M 427.344,66 h -29.313 c -1.125,0 -2.354,-0.1979 -3.687,-0.5938 -1.334,-0.3958 -2.573,-1.0416 -3.719,-1.9374 -1.125,-0.9167 -2.073,-2.0938 -2.844,-3.5313 -0.75,-1.4583 -1.125,-3.2396 -1.125,-5.3437 V 25.2812 c 0,-0.5624 0.104,-1.0937 0.313,-1.5937 0.208,-0.5 0.489,-0.9375 0.843,-1.3125 0.376,-0.375 0.813,-0.6667 1.313,-0.875 0.5,-0.2083 1.042,-0.3125 1.625,-0.3125 h 36.594 v 8.125 h -32.563 v 25.2813 c 0,1.0624 0.281,1.875 0.844,2.4374 0.563,0.5626 1.385,0.8438 2.469,0.8438 h 29.25 z m 36.875,0 h -8.125 V 21.1875 h 8.125 z m 52.562,-13.1875 c 0,1.6042 -0.208,3.0521 -0.625,4.3437 -0.396,1.2709 -0.927,2.3959 -1.594,3.375 -0.666,0.9792 -1.447,1.8126 -2.343,2.5 -0.896,0.6876 -1.823,1.25 -2.781,1.6876 -0.959,0.4374 -1.938,0.7604 -2.938,0.9687 C 505.521,65.8958 504.594,66 503.719,66 h -31.344 v -8.125 h 31.344 c 1.562,0 2.771,-0.4583 3.625,-1.375 0.875,-0.9167 1.312,-2.1458 1.312,-3.6875 0,-0.75 -0.114,-1.4375 -0.344,-2.0625 -0.229,-0.625 -0.562,-1.1667 -1,-1.625 -0.416,-0.4583 -0.937,-0.8125 -1.562,-1.0625 -0.604,-0.25 -1.281,-0.375 -2.031,-0.375 h -18.688 c -1.312,0 -2.729,-0.2292 -4.25,-0.6875 -1.521,-0.4792 -2.937,-1.2396 -4.25,-2.2812 -1.291,-1.0417 -2.375,-2.4063 -3.25,-4.0938 -0.854,-1.6875 -1.281,-3.75 -1.281,-6.1875 0,-2.4375 0.427,-4.4896 1.281,-6.1563 0.875,-1.6874 1.959,-3.052 3.25,-4.0937 1.313,-1.0625 2.729,-1.8229 4.25,-2.2813 1.521,-0.4791 2.938,-0.7187 4.25,-0.7187 h 27.657 v 8.125 h -27.657 c -1.541,0 -2.75,0.4687 -3.625,1.4063 -0.854,0.9374 -1.281,2.177 -1.281,3.7187 0,1.5625 0.427,2.8021 1.281,3.7187 0.875,0.8959 2.084,1.3438 3.625,1.3438 h 18.688 0.062 c 0.875,0.0208 1.802,0.1458 2.781,0.375 0.98,0.2083 1.948,0.5417 2.907,1 0.979,0.4583 1.906,1.0417 2.781,1.75 0.875,0.6875 1.646,1.5208 2.312,2.5 0.688,0.9792 1.23,2.1042 1.626,3.375 0.395,1.2708 0.593,2.7083 0.593,4.3125 z M 596.188,66 H 588 V 39.3125 l -14.406,25.3437 c -0.354,0.6459 -0.854,1.1355 -1.5,1.4688 -0.625,0.3333 -1.302,0.5 -2.032,0.5 -0.708,0 -1.374,-0.1667 -2,-0.5 -0.604,-0.3333 -1.083,-0.8229 -1.437,-1.4688 L 552.156,39.3125 V 66 h -8.125 V 24.6562 c 0,-0.9374 0.271,-1.7708 0.813,-2.5 0.562,-0.7291 1.291,-1.2187 2.187,-1.4687 0.438,-0.1042 0.875,-0.1354 1.313,-0.0937 0.437,0.0208 0.854,0.1145 1.25,0.2812 0.416,0.1458 0.791,0.3646 1.125,0.6562 0.333,0.2709 0.614,0.6042 0.843,1 l 18.5,32.1563 18.5,-32.1563 c 0.48,-0.7916 1.136,-1.3541 1.969,-1.6874 0.854,-0.3334 1.74,-0.3855 2.657,-0.1563 0.874,0.25 1.593,0.7396 2.156,1.4687 0.562,0.7292 0.844,1.5626 0.844,2.5 z m 56.5,-18.125 c 0,2.7292 -0.469,5.2396 -1.407,7.5312 -0.937,2.2917 -2.239,4.2709 -3.906,5.9376 -1.667,1.6666 -3.646,2.9687 -5.937,3.9062 -2.271,0.9167 -4.75,1.375 -7.438,1.375 h -11 c -2.688,0 -5.177,-0.4583 -7.469,-1.375 -2.291,-0.9375 -4.271,-2.2396 -5.937,-3.9062 -1.667,-1.6667 -2.979,-3.6459 -3.938,-5.9376 -0.937,-2.2916 -1.406,-4.802 -1.406,-7.5312 v -8.5625 c 0,-2.7083 0.469,-5.2083 1.406,-7.5 0.959,-2.3125 2.271,-4.2917 3.938,-5.9375 1.666,-1.6667 3.646,-2.9688 5.937,-3.9062 2.292,-0.9376 4.781,-1.4063 7.469,-1.4063 h 11 c 2.688,0 5.167,0.4687 7.438,1.4063 2.291,0.9374 4.27,2.2395 5.937,3.9062 1.667,1.6458 2.969,3.625 3.906,5.9375 0.938,2.2917 1.407,4.7917 1.407,7.5 z m -8.126,-8.5625 c 0,-1.6042 -0.26,-3.0521 -0.781,-4.3437 -0.5,-1.3126 -1.219,-2.4271 -2.156,-3.3438 -0.917,-0.9375 -2.031,-1.6562 -3.344,-2.1562 -1.291,-0.5209 -2.719,-0.7813 -4.281,-0.7813 h -11 c -1.583,0 -3.031,0.2604 -4.344,0.7813 -1.291,0.5 -2.406,1.2187 -3.344,2.1562 -0.937,0.9167 -1.666,2.0312 -2.187,3.3438 -0.5,1.2916 -0.75,2.7395 -0.75,4.3437 v 8.5625 c 0,1.6042 0.25,3.0625 0.75,4.375 0.521,1.2917 1.25,2.4062 2.187,3.3438 0.938,0.9166 2.053,1.6354 3.344,2.1562 1.313,0.5 2.761,0.75 4.344,0.75 h 10.938 c 1.583,0 3.02,-0.25 4.312,-0.75 1.312,-0.5208 2.438,-1.2396 3.375,-2.1562 0.937,-0.9376 1.656,-2.0521 2.156,-3.3438 0.521,-1.3125 0.781,-2.7708 0.781,-4.375 z M 705.5,36.25 c 0,1.8542 -0.229,3.5104 -0.688,4.9688 -0.458,1.4583 -1.083,2.75 -1.874,3.875 -0.771,1.1041 -1.667,2.052 -2.688,2.8437 -1.021,0.7917 -2.094,1.4479 -3.219,1.9687 -1.104,0.5 -2.229,0.8646 -3.375,1.0938 -1.125,0.2292 -2.187,0.3438 -3.187,0.3438 L 707.438,66 H 694.875 L 677.938,51.3438 h -5.844 v -8.125 h 18.375 c 1.021,-0.0834 1.948,-0.2917 2.781,-0.625 0.854,-0.3542 1.583,-0.823 2.188,-1.4063 0.624,-0.5833 1.104,-1.2813 1.437,-2.0937 0.333,-0.8334 0.5,-1.7813 0.5,-2.8438 v -5.125 c 0,-0.4583 -0.063,-0.8021 -0.187,-1.0312 -0.105,-0.25 -0.25,-0.4271 -0.438,-0.5313 -0.167,-0.125 -0.354,-0.1979 -0.562,-0.2187 -0.188,-0.0209 -0.365,-0.0313 -0.532,-0.0313 H 668.844 V 66 h -8.125 V 25.2812 c 0,-0.5624 0.104,-1.0937 0.312,-1.5937 0.209,-0.5 0.49,-0.9375 0.844,-1.3125 0.375,-0.375 0.813,-0.6667 1.313,-0.875 0.5,-0.2083 1.041,-0.3125 1.624,-0.3125 h 30.844 c 1.813,0 3.344,0.3333 4.594,1 1.25,0.6458 2.26,1.4687 3.031,2.4687 0.792,0.9792 1.354,2.0417 1.688,3.1876 0.354,1.1458 0.531,2.2187 0.531,3.2187 z m 45,11.4375 H 724.844 V 39.5 H 750.5 Z M 754.156,66 h -29.312 c -1.125,0 -2.354,-0.1979 -3.688,-0.5938 -1.333,-0.3958 -2.573,-1.0416 -3.718,-1.9374 -1.126,-0.9167 -2.073,-2.0938 -2.844,-3.5313 -0.75,-1.4583 -1.125,-3.2396 -1.125,-5.3437 V 25.2812 c 0,-0.5624 0.104,-1.0937 0.312,-1.5937 0.209,-0.5 0.49,-0.9375 0.844,-1.3125 0.375,-0.375 0.813,-0.6667 1.313,-0.875 0.5,-0.2083 1.041,-0.3125 1.624,-0.3125 h 36.594 v 8.125 h -32.562 v 25.2813 c 0,1.0624 0.281,1.875 0.844,2.4374 0.562,0.5626 1.385,0.8438 2.468,0.8438 h 29.25 z"
       id="path4490"
       inkscape:connector-curvature="0"
       style="display:inline;fill:url(#paint0_linear)" />
  </g>
  <defs
     id="defs4499">
    <linearGradient
       id="paint0_linear"
       x1="396.5"
       y1="3"
       x2="396.5"
       y2="94"
       gradientUnits="userSpaceOnUse">
      <stop
         stop-color="#FCF600"
         id="stop4494" />
      <stop
         offset="1"
         stop-color="white"
         stop-opacity="0"
         id="stop4496" />
    </linearGradient>
  </defs>
</svg>
