<svg xmlns="http://www.w3.org/2000/svg" xmlns:xlink="http://www.w3.org/1999/xlink" width="490.194" height="283.574" viewBox="0 0 490.194 283.574">
  <defs>
    <clipPath id="clip-path">
      <rect width="490.194" height="283.574" fill="none"/>
    </clipPath>
  </defs>
  <g id="Component_1_1" data-name="Component 1 – 1" clip-path="url(#clip-path)">
    <path id="Path_1" data-name="Path 1" d="M539.064,404.422l5.239-42.24-4.91-3.6h-7.207l-4.254-4.257h-2.949l-19.32-11.787.331-4.586L399.568,270.823l-.652-8.842-11.464-3.929-12.112,4.586-.327,8.511-309.44,38.97,3.274,41.256s-4.258,2.946-4.258,4.586a35.544,35.544,0,0,0,.656,4.912l13.1,47.807s-4.257,2.621-4.257,3.6v4.258s2.621,27.178,8.189,27.834,7.528-1.966,7.528-1.966l20.634,68.109s16.044,30.453,18.009,31.107,397.2-98.558,397.2-98.558,7.532-14.083,9.167-14.083,18.34-3.6,18.34-3.6l1.636-9.5Z" transform="translate(-64.589 -258.052)" fill="#1a1818"/>
    <path id="Path_2" data-name="Path 2" d="M528.637,407.772l3.9,2.6L534.7,408.2l6.065-42.46-3.9-3.032H532.1l-4.335-3.467-3.9.431-22.1-15.161.435-3.038L397.786,275.622l-1.3,42.9,3.9,2.167,2.6,8.662-4.767.435v4.766l-30.328,17.765s-12.133,33.794-72.79,45.058c0,0-78.93,9.95-136.428-12.123,0,0-39.483-16.9-30.818-42.037s71.492-39.859,71.492-39.859,70.621-13,129.981,7.365c0,0,23.4,9.1,28.6,17.764l17.328-10.4,2.6-43.758L70.233,315.483,72.4,355.347l4.329.862,1.3,2.6,42.028,142.548,7.363-.869L123.959,453.7l410.31-82.753Z" transform="translate(-64.589 -258.052)" fill="#bab1a2"/>
    <path id="Path_3" data-name="Path 3" d="M305.574,342.377c0,13.054-25.739,23.641-57.49,23.641S190.6,355.431,190.6,342.377s25.74-23.643,57.487-23.643S305.574,329.318,305.574,342.377Z" transform="translate(-64.589 -258.052)" fill="#ec411b"/>
    <path id="Path_4" data-name="Path 4" d="M379.611,343.844l.192-9.2s-2.493-7.673-5.754-9.017a9.142,9.142,0,0,0-5.507-.711L320.6,354.065l-1.784,3.589,15.344,4.8,38.933-19.181s1.152,0,1.345.575.576,2.495.576,2.495Z" transform="translate(-64.589 -258.052)" fill="#bab1a2"/>
    <path id="Path_5" data-name="Path 5" d="M419.33,433.566l3.226-34.943L126.864,457.762l4.838,40.857Z" transform="translate(-64.589 -258.052)" fill="#ec411b"/>
    <path id="Path_6" data-name="Path 6" d="M475.436,407.035s-5.337-2.133-9.429,3.916c0,0-1.957,5.158-.357,7.473C465.65,418.424,476.147,420.2,475.436,407.035Z" transform="translate(-64.589 -258.052)" fill="#00a6d7"/>
    <path id="Path_7" data-name="Path 7" d="M524.008,395.828s-5.339-2.134-9.431,3.913c0,0-1.957,5.158-.353,7.472C514.224,407.213,524.718,408.992,524.008,395.828Z" transform="translate(-64.589 -258.052)" fill="#00a6d7"/>
    <path id="Path_8" data-name="Path 8" d="M476.977,404.156l-10.792-7.973s-4.987-3.125-11.2,4.562c-3.954,4.89-3.01,7.622-2.138,9.158l11.2,11.009s-3.97-8.238,1.912-13.787C471.377,402.014,476.977,404.156,476.977,404.156Z" transform="translate(-64.589 -258.052)" fill="#9a9488"/>
    <path id="Path_9" data-name="Path 9" d="M525.73,394.038l-10.792-7.974s-4.983-3.124-11.2,4.563c-3.954,4.89-3.009,7.621-2.14,9.16L512.8,410.8s-3.968-8.24,1.912-13.787C520.133,391.9,525.73,394.038,525.73,394.038Z" transform="translate(-64.589 -258.052)" fill="#9a9488"/>
    <path id="Path_10" data-name="Path 10" d="M131.211,501.679l.527,4.077-8.982,1.744,4.076,12.975,425.043-97.23L538.793,410.98l-3.272,1.636Z" transform="translate(-64.589 -258.052)" fill="#9a9488"/>
    <path id="Path_11" data-name="Path 11" d="M353.668,355.507l-1.226.818-2.659,2.047,5.518,2.656,3.886-1.228s.613-.4,0-1.226a2.894,2.894,0,0,0-1.228-1.02Z" transform="translate(-64.589 -258.052)" fill="#7f8184"/>
    <path id="Path_12" data-name="Path 12" d="M333.022,364.094v4.5l-4.5-1.633-2.452-2.452-2.865,1.018-2.452-.612-1.225-5.517Z" transform="translate(-64.589 -258.052)" fill="#7f8184"/>
    <path id="Path_13" data-name="Path 13" d="M255.976,340.38c0-1.909-3.763-3.459-8.407-3.459s-8.4,1.55-8.4,3.459,3.763,3.453,8.4,3.453S255.976,342.287,255.976,340.38Z" transform="translate(-64.589 -258.052)" fill="#1a1818"/>
    <path id="Path_14" data-name="Path 14" d="M242.3,340.791a8.028,8.028,0,0,0,10.221.205v-5.723l-.818-3.682-3.882-2.453-4.5,2.252-.817,3.471Z" transform="translate(-64.589 -258.052)" fill="#1a1818"/>
    <path id="Path_15" data-name="Path 15" d="M115.185,454.179l-44.952-138.7,2.312,39.468,4.568,1.392L120.407,501.32Z" transform="translate(-64.589 -258.052)" fill="#9a9488"/>
    <path id="Path_16" data-name="Path 16" d="M379.722,334.484l-1.053-2.456L332.8,356.945l1.358,5.505,38.932-19.16s1.15.02,1.339.5.585,2.551.585,2.551l4.622-2.488Z" transform="translate(-64.589 -258.052)" fill="#9a9488"/>
    <path id="Path_17" data-name="Path 17" d="M315.433,437.756c-.815,8.035-16.367,16.752-34.746,19.472s-32.606-1.6-31.793-9.63,16.367-16.752,34.742-19.471S316.247,429.724,315.433,437.756Z" transform="translate(-64.589 -258.052)" fill="#1a1818"/>
    <path id="Path_18" data-name="Path 18" d="M502.607,344.85l-52.337,9.03,20.456,16.954,56.021-11.794Z" transform="translate(-64.589 -258.052)" fill="#9a9488"/>
    <path id="Path_19" data-name="Path 19" d="M503.529,341.023l-57.523,9.728,4.264,3.128,52.337-9.03Z" transform="translate(-64.589 -258.052)" fill="#1a1818"/>
    <path id="Path_20" data-name="Path 20" d="M132.333,362.334s9.418,54.268,161.333,40c0,0,61.49-6.171,74.226-50.021,0,0-45.923,43.919-77.358,43.549S173.667,400.334,132.333,362.334Z" transform="translate(-64.589 -258.052)" fill="#1a1818" opacity="0.2"/>
  </g>
</svg>
